# xmcd
#
# Track frame offsets:
#       150
#       13904
#       30766
#       46119
#       59169
#       71600
#       85629
#       99241
#       111319
#       124512
#
# Disc length: 1805 seconds
#
# Revision: 0
# Processed by: cddbd v1.4PL0 Copyright (c) Steve Scherf et al.
# Submitted via: CD-DA_X-Tractor v0.24
#
DISCID=77070b0a
DTITLE=Norman Luboff Choir - Forever Frank 
DYEAR=1996
DGENRE=easy listening
TTITLE0=The Second Time Around
TTITLE1=What Now My Love
TTITLE2=These Foolish Things
TTITLE3=Fly Me To The Moon
TTITLE4=Embracable You
TTITLE5=Strangers In The Night
TTITLE6=Summer Wind
TTITLE7=Call Me Irresponsible
TTITLE8=Someone To Watch Over Me
TTITLE9=It Had To Be You
EXTD=
EXTT0=
EXTT1=
EXTT2=
EXTT3=
EXTT4=
EXTT5=
EXTT6=
EXTT7=
EXTT8=
EXTT9=
PLAYORDER=
